<?xml version="1.0" encoding="utf-8"?>
<!-- Generator: Adobe Illustrator 22.0.0, SVG Export Plug-In . SVG Version: 6.00 Build 0)  -->
<svg version="1.1" id="Layer_1" xmlns="http://www.w3.org/2000/svg" xmlns:xlink="http://www.w3.org/1999/xlink" x="0px" y="0px"
	 viewBox="0 0 735.8 679" style="enable-background:new 0 0 735.8 679;" xml:space="preserve">
<style type="text/css">
	.st0{fill:#414042;}
	.st1{fill:#00AEEF;}
</style>
<title>Zasób 15</title>
<g>
	<path class="st0" d="M12,549c-3.2,0-5.9-1-8.2-3c-2.3-2-3.4-4.8-3.4-8.3c0-3.3,1.2-5.9,3.5-8.1s5-3.1,8.1-3.1c3,0,5.6,0.9,7.9,2.9
		c2.3,1.9,3.4,4.7,3.4,8.3c0,3.5-1.1,6.3-3.4,8.3C17.8,548,15.1,549,12,549z M23.4,572.7v66.3c0,4.6-1.1,8.1-3.3,10.4
		c-2.2,2.3-4.9,3.5-8.3,3.5s-6.1-1.2-8.2-3.6s-3.1-5.9-3.1-10.3v-65.6c0-4.5,1-8,3.1-10.2s4.8-3.4,8.2-3.4s6.1,1.2,8.3,3.4
		S23.4,568.6,23.4,572.7z"/>
	<path class="st0" d="M45.2,561.6h5.5v-6.9c0-7.2,0.9-12.9,2.7-17.1c1.8-4.2,4.9-7.3,9.2-9.2c4.3-2,10.3-2.9,17.8-2.9
		c13.4,0,20.1,3.3,20.1,9.8c0,2.1-0.7,3.9-2.1,5.5c-1.4,1.5-3,2.3-4.9,2.3c-0.9,0-2.4-0.2-4.6-0.5c-2.2-0.3-4.1-0.5-5.5-0.5
		c-4.1,0-6.8,1.3-8,3.7c-1.2,2.4-1.8,5.9-1.8,10.5v5.5h5.6c8.8,0,13.1,2.7,13.1,7.9c0,3.8-1.2,6.1-3.5,7.1c-2.3,1-5.5,1.5-9.6,1.5
		h-5.6V639c0,4.5-1.1,8-3.2,10.4c-2.2,2.3-4.9,3.6-8.4,3.6c-3.3,0-5.9-1.2-8.1-3.6c-2.2-2.3-3.2-5.9-3.2-10.4v-60.7h-6.3
		c-3.4,0-6-0.8-7.9-2.3s-2.7-3.5-2.7-6C33.7,564.4,37.5,561.6,45.2,561.6z"/>
	<path class="st0" d="M166,611.9h-44.9c0.1,5.2,1.1,9.8,3.1,13.8c2,4,4.8,7,8.1,9c3.4,2,7.1,3,11.2,3c2.7,0,5.2-0.3,7.5-0.9
		c2.3-0.6,4.5-1.6,6.6-3c2.1-1.4,4.1-2.8,5.9-4.4c1.8-1.6,4.1-3.7,7-6.4c1.2-1,2.9-1.5,5-1.5c2.3,0,4.2,0.6,5.7,2
		c1.5,1.3,2.2,3.1,2.2,5.5c0,2.1-0.8,4.5-2.4,7.3c-1.6,2.7-4.1,5.4-7.3,8s-7.4,4.7-12.3,6.3c-4.9,1.6-10.6,2.5-17.1,2.5
		c-14.7,0-26.2-4.2-34.3-12.6c-8.2-8.4-12.3-19.8-12.3-34.2c0-6.8,1-13.1,3-18.8c2-5.8,4.9-10.8,8.8-14.9c3.8-4.1,8.6-7.3,14.3-9.5
		c5.6-2.2,12-3.3,18.8-3.3c9,0,16.6,1.9,23.1,5.7c6.4,3.8,11.2,8.7,14.4,14.6c3.2,6,4.8,12.1,4.8,18.3c0,5.8-1.6,9.5-4.9,11.2
		C176.6,611,172,611.9,166,611.9z M121.2,598.8h41.6c-0.5-7.8-2.7-13.7-6.3-17.6c-3.7-3.9-8.5-5.9-14.5-5.9c-5.7,0-10.4,2-14.1,5.9
		S121.9,591.1,121.2,598.8z"/>
	<path class="st0" d="M216.1,573.9l18.5,52.1l20-54.3c1.6-4.4,3.1-7.4,4.6-9.3c1.5-1.8,3.8-2.7,6.9-2.7c2.9,0,5.4,1,7.4,3
		c2,2,3,4.2,3,6.8c0,1-0.2,2.2-0.5,3.5c-0.4,1.3-0.8,2.6-1.3,3.8c-0.5,1.2-1,2.5-1.6,4.1l-22,54.6c-0.6,1.6-1.4,3.5-2.4,5.9
		c-1,2.4-2.1,4.5-3.3,6.2c-1.2,1.7-2.7,3-4.5,4c-1.8,0.9-3.9,1.4-6.4,1.4c-3.3,0-5.9-0.8-7.7-2.2c-1.9-1.4-3.4-3.1-4.3-4.8
		s-2.5-5.2-4.7-10.5l-21.8-54c-0.5-1.3-1-2.7-1.6-4.1c-0.5-1.3-1-2.7-1.3-4.1c-0.4-1.4-0.5-2.6-0.5-3.6c0-1.6,0.5-3.1,1.4-4.7
		s2.3-2.8,3.9-3.8c1.6-1,3.5-1.5,5.5-1.5c3.8,0,6.4,1.1,7.8,3.3C212.7,565,214.4,568.8,216.1,573.9z"/>
	<path class="st0" d="M354.8,611.9H310c0.1,5.2,1.1,9.8,3.1,13.8c2,4,4.8,7,8.1,9c3.4,2,7.1,3,11.2,3c2.7,0,5.2-0.3,7.5-0.9
		c2.3-0.6,4.5-1.6,6.6-3c2.1-1.4,4.1-2.8,5.9-4.4c1.8-1.6,4.1-3.7,7-6.4c1.2-1,2.9-1.5,5-1.5c2.3,0,4.2,0.6,5.7,2
		c1.5,1.3,2.2,3.1,2.2,5.5c0,2.1-0.8,4.5-2.4,7.3c-1.6,2.7-4.1,5.4-7.3,8s-7.4,4.7-12.3,6.3c-4.9,1.6-10.6,2.5-17.1,2.5
		c-14.7,0-26.2-4.2-34.3-12.6c-8.2-8.4-12.3-19.8-12.3-34.2c0-6.8,1-13.1,3-18.8c2-5.8,4.9-10.8,8.8-14.9c3.8-4.1,8.6-7.3,14.3-9.5
		c5.6-2.2,12-3.3,18.8-3.3c9,0,16.6,1.9,23.1,5.7c6.4,3.8,11.2,8.7,14.4,14.6c3.2,6,4.8,12.1,4.8,18.3c0,5.8-1.6,9.5-4.9,11.2
		C365.5,611,360.8,611.9,354.8,611.9z M310,598.8h41.6c-0.5-7.8-2.7-13.7-6.3-17.6c-3.7-3.9-8.5-5.9-14.5-5.9
		c-5.7,0-10.4,2-14.1,5.9C313,585.3,310.8,591.1,310,598.8z"/>
	<path class="st0" d="M413.9,572.4v2.7c4.1-5.3,8.4-9.2,13.2-11.7c4.8-2.5,10.3-3.8,16.5-3.8c6,0,11.4,1.3,16.2,3.9
		c4.8,2.7,8.3,6.3,10.6,11.2c1.5,2.8,2.5,5.8,3,9.1c0.5,3.3,0.7,7.4,0.7,12.4v42.7c0,4.6-1,8.1-3.1,10.4c-2.1,2.3-4.8,3.5-8.2,3.5
		c-3.4,0-6.2-1.2-8.3-3.6s-3.2-5.9-3.2-10.3v-38.1c0-7.6-1-13.4-3.1-17.4c-2.1-4-6.3-6-12.6-6c-4.1,0-7.8,1.3-11.2,3.7
		c-3.4,2.4-5.8,5.8-7.4,10c-1.1,3.4-1.6,9.8-1.6,19.1v28.7c0,4.6-1.1,8.1-3.2,10.5c-2.2,2.3-4.9,3.5-8.4,3.5c-3.3,0-6-1.2-8.1-3.6
		c-2.1-2.4-3.2-5.9-3.2-10.3v-66.3c0-4.4,0.9-7.7,2.9-9.8c1.9-2.2,4.5-3.2,7.8-3.2c2,0,3.8,0.5,5.5,1.4c1.6,0.9,2.9,2.3,3.9,4.3
		C413.4,567.3,413.9,569.6,413.9,572.4z"/>
	<path class="st0" d="M498.1,561.6h2.5v-13.8c0-3.7,0.1-6.6,0.3-8.7c0.2-2.1,0.7-3.9,1.6-5.4c0.9-1.6,2.2-2.8,3.8-3.8
		c1.6-1,3.5-1.5,5.6-1.5c2.9,0,5.5,1.1,7.9,3.3c1.6,1.5,2.6,3.2,3,5.3c0.4,2.1,0.6,5.1,0.6,8.9v15.6h8.4c3.3,0,5.7,0.8,7.4,2.3
		s2.6,3.5,2.6,5.9c0,3-1.3,5.2-3.7,6.5c-2.4,1.3-5.9,1.9-10.5,1.9h-4.3v42.1c0,3.6,0.2,6.3,0.4,8.3s0.9,3.5,2,4.7s2.9,1.8,5.3,1.8
		c1.3,0,3.1-0.2,5.5-0.7c2.3-0.5,4.1-0.7,5.4-0.7c1.9,0,3.5,0.8,5,2.2c1.5,1.5,2.2,3.3,2.2,5.5c0,3.7-2,6.5-6,8.4c-4,2-9.8,3-17.4,3
		c-7.2,0-12.6-1.2-16.3-3.6s-6.1-5.7-7.3-10c-1.2-4.2-1.7-9.9-1.7-17v-44h-3c-3.3,0-5.8-0.8-7.6-2.3c-1.7-1.6-2.6-3.5-2.6-5.9
		s0.9-4.4,2.7-5.9C492,562.4,494.7,561.6,498.1,561.6z"/>
	<path class="st0" d="M643.6,606.3c0,6.8-1.1,13.1-3.2,18.9c-2.1,5.8-5.2,10.7-9.2,14.9c-4.1,4.1-8.8,7.3-14.5,9.5
		s-11.9,3.3-18.9,3.3c-7,0-13.2-1.1-18.8-3.4c-5.5-2.3-10.3-5.5-14.4-9.6c-4.1-4.1-7.1-9.1-9.2-14.8c-2.1-5.7-3.1-12-3.1-18.8
		c0-7,1.1-13.3,3.2-19.1s5.2-10.7,9.1-14.8c4-4.1,8.8-7.3,14.5-9.5c5.6-2.2,11.9-3.3,18.8-3.3c7,0,13.2,1.1,18.9,3.4
		c5.6,2.3,10.5,5.4,14.5,9.5c4.1,4.1,7.1,9.1,9.2,14.8C642.6,593.1,643.6,599.4,643.6,606.3z M620.6,606.3c0-9.4-2-16.6-6.2-21.8
		c-4.1-5.2-9.6-7.8-16.6-7.8c-4.5,0-8.4,1.2-11.8,3.5c-3.4,2.3-6,5.8-7.9,10.3c-1.9,4.5-2.7,9.8-2.7,15.9s0.9,11.3,2.7,15.7
		c1.8,4.5,4.5,7.9,7.8,10.3c3.4,2.3,7.3,3.6,12,3.6c7,0,12.5-2.6,16.6-7.8C618.5,622.7,620.6,615.5,620.6,606.3z"/>
	<path class="st0" d="M735.4,622.8c0,6.3-1.6,11.7-4.6,16.3c-3,4.5-7.7,7.9-13.7,10.2c-6,2.3-13.4,3.5-22,3.5
		c-8.2,0-15.3-1.3-21.2-3.8c-5.9-2.5-10.2-5.7-13.1-9.5c-2.8-3.8-4.2-7.6-4.2-11.4c0-2.5,0.9-4.7,2.7-6.5c1.8-1.8,4.1-2.7,6.8-2.7
		c2.4,0,4.2,0.6,5.5,1.8c1.3,1.2,2.5,2.8,3.7,4.9c2.3,4.1,5.2,7.1,8.4,9.1s7.7,3,13.4,3c4.6,0,8.4-1,11.3-3c3-2,4.4-4.4,4.4-7
		c0-4.1-1.6-7-4.6-8.8c-3-1.9-8.1-3.6-15.1-5.3c-7.9-2-14.3-4-19.3-6.2c-4.9-2.2-8.9-5-11.9-8.5c-3-3.5-4.5-7.9-4.5-13.1
		c0-4.6,1.4-8.9,4.1-13.1c2.7-4.1,6.8-7.3,12.1-9.8s11.8-3.7,19.4-3.7c5.9,0,11.3,0.6,16,1.9c4.8,1.3,8.7,2.9,11.8,4.9
		c3.1,2.1,5.5,4.4,7.2,6.9c1.6,2.5,2.5,5,2.5,7.4c0,2.7-0.9,4.8-2.7,6.5c-1.8,1.7-4.3,2.5-7.5,2.5c-2.3,0-4.4-0.7-6-2
		s-3.5-3.4-5.7-6c-1.7-2.3-3.8-4.1-6.1-5.4c-2.3-1.3-5.5-2-9.5-2c-4.1,0-7.6,0.9-10.3,2.7c-2.7,1.8-4.1,4-4.1,6.6c0,2.4,1,4.4,3,5.9
		s4.8,2.8,8.1,3.8c3.4,1,8.1,2.3,14.1,3.7c7.1,1.7,12.9,3.8,17.4,6.2c4.5,2.4,7.9,5.2,10.2,8.5C734.2,614.9,735.4,618.7,735.4,622.8
		z"/>
</g>
<g>
	<path class="st1" d="M439.2,217.2c-10.9,0-19.9,3.8-26.9,11.3s-11.3,18.7-12.7,33.3h79.3c-1-14.9-5.1-26.1-12.1-33.5
		C459.7,220.8,450.5,217.2,439.2,217.2z"/>
	<path class="st1" d="M591.8,132.9l-179.2-117L209.4,82.9l-74.2,200.7l110.7,183.2L458,494.6l154-148.7L591.8,132.9z M311.8,338.1
		c0,8.7-2.1,15.3-6.2,19.8c-4.2,4.5-9.5,6.7-15.8,6.7s-11.5-2.3-15.6-6.9c-4-4.5-6-11.2-6-19.7V213.2c0-8.7,1.9-15.2,6-19.5
		c4-4.4,9.2-6.6,15.6-6.6c6.4,0,11.7,2.2,15.8,6.6c4.2,4.4,6.2,10.5,6.2,18.3V338.1z M305.3,161.1c-4.3,3.8-9.3,5.7-15.2,5.7
		c-6.1,0-11.3-1.8-15.6-5.6s-6.5-9-6.5-15.8c0-6.2,2.2-11.3,6.6-15.3s9.6-6,15.4-6c5.7,0,10.6,1.8,15,5.4c4.4,3.6,6.6,9,6.6,15.8
		C311.8,152.1,309.6,157.2,305.3,161.1z M405.6,312.9c3.9,7.5,9.1,13.2,15.6,17.1c6.5,3.9,13.6,5.7,21.4,5.7c5.2,0,10-0.6,14.3-1.8
		c4.3-1.2,8.6-3.1,12.6-5.7c4-2.6,7.8-5.4,11.2-8.4c3.4-3,7.8-7,13.2-12.2c2.2-1.9,5.4-2.9,9.6-2.9c4.5,0,8,1.2,10.9,3.6
		c2.7,2.5,4.2,6,4.2,10.4c0,3.9-1.6,8.6-4.7,13.9c-3.1,5.3-7.8,10.4-14,15.2c-6.2,4.8-14.1,8.8-23.5,12.1
		c-9.5,3.2-20.2,4.8-32.6,4.8c-28,0-49.8-8-65.5-24c-15.6-16-23.4-37.8-23.4-65.1c0-12.8,1.9-24.9,5.7-35.9
		c3.9-11,9.5-20.5,16.9-28.4c7.4-7.9,16.5-14,27.2-18.2c10.8-4.2,22.7-6.4,35.8-6.4c17.1,0,31.7,3.6,44,10.8
		c12.2,7.3,21.4,16.5,27.5,27.9c6.1,11.4,9.1,23.1,9.1,34.9c0,11-3.1,18.2-9.5,21.4c-6.4,3.2-15.2,4.9-26.6,4.9h-85.5
		C399.7,296.6,401.7,305.3,405.6,312.9z"/>
</g>
</svg>
