<?xml version="1.0" encoding="utf-8"?>
<!-- Generator: Adobe Illustrator 22.0.0, SVG Export Plug-In . SVG Version: 6.00 Build 0)  -->
<svg version="1.1" id="Layer_1" xmlns="http://www.w3.org/2000/svg" xmlns:xlink="http://www.w3.org/1999/xlink" x="0px" y="0px"
	 viewBox="0 0 1393.7 376.4" style="enable-background:new 0 0 1393.7 376.4;" xml:space="preserve">
<style type="text/css">
	.st0{fill:#414042;}
	.st1{fill:none;}
	.st2{fill:#FFFFFF;}
</style>
<title>Zasób 18</title>
<g>
	<path class="st0" d="M467,131.8c-4.1,0-7.6-1.3-10.5-3.8s-4.4-6.1-4.4-10.6c0-4.2,1.5-7.6,4.5-10.3c3-2.7,6.4-4,10.4-4
		c3.8,0,7.2,1.2,10.1,3.7c2.9,2.4,4.4,6,4.4,10.6c0,4.5-1.4,8-4.3,10.6C474.3,130.5,470.9,131.8,467,131.8z M481.5,162.1v84.8
		c0,5.9-1.4,10.3-4.2,13.3s-6.3,4.5-10.6,4.5s-7.8-1.5-10.5-4.6s-4-7.5-4-13.2V163c0-5.8,1.3-10.2,4-13.1c2.7-2.9,6.2-4.4,10.5-4.4
		s7.8,1.5,10.6,4.4C480.1,152.8,481.5,156.9,481.5,162.1z"/>
	<path class="st0" d="M509.4,148h7v-8.8c0-9.2,1.2-16.5,3.5-21.9s6.3-9.3,11.8-11.8s13.2-3.7,22.8-3.7c17.1,0,25.7,4.2,25.7,12.6
		c0,2.7-0.9,5-2.7,7c-1.8,1.9-3.9,2.9-6.3,2.9c-1.1,0-3.1-0.2-5.9-0.6s-5.2-0.6-7.1-0.6c-5.3,0-8.7,1.6-10.2,4.7s-2.3,7.6-2.3,13.4
		v7h7.2c11.2,0,16.8,3.4,16.8,10.1c0,4.8-1.5,7.8-4.5,9.1s-7.1,1.9-12.3,1.9h-7.2V247c0,5.8-1.4,10.2-4.1,13.3
		c-2.8,3-6.3,4.6-10.7,4.6c-4.2,0-7.6-1.5-10.4-4.6c-2.8-3-4.1-7.5-4.1-13.3v-77.7h-8.1c-4.4,0-7.7-1-10.1-3s-3.5-4.5-3.5-7.7
		C494.7,151.5,499.6,148,509.4,148z"/>
	<path class="st0" d="M664,212.3h-57.4c0.1,6.7,1.4,12.5,4,17.6s6.1,8.9,10.4,11.5c4.3,2.6,9.1,3.9,14.3,3.9c3.5,0,6.7-0.4,9.6-1.2
		c2.9-0.8,5.7-2.1,8.4-3.9c2.7-1.8,5.2-3.6,7.5-5.6s5.3-4.7,8.9-8.2c1.5-1.3,3.7-1.9,6.4-1.9c3,0,5.4,0.8,7.3,2.5
		c1.9,1.6,2.8,4,2.8,7c0,2.7-1,5.7-3.1,9.3c-2.1,3.5-5.2,6.9-9.4,10.2s-9.5,6-15.8,8.1s-13.6,3.2-21.9,3.2
		c-18.8,0-33.5-5.4-43.9-16.1c-10.5-10.7-15.7-25.3-15.7-43.7c0-8.7,1.3-16.7,3.9-24.1s6.3-13.8,11.3-19.1c4.9-5.3,11-9.4,18.3-12.2
		c7.2-2.8,15.3-4.2,24.1-4.2c11.5,0,21.3,2.4,29.5,7.3c8.2,4.8,14.3,11.1,18.4,18.7c4.1,7.7,6.1,15.5,6.1,23.4
		c0,7.4-2.1,12.2-6.3,14.3C677.6,211.2,671.6,212.3,664,212.3z M606.6,195.6h53.2c-0.7-10-3.4-17.5-8.1-22.5
		c-4.7-5-10.9-7.5-18.5-7.5c-7.3,0-13.3,2.5-18,7.6C610.5,178.3,607.6,185.7,606.6,195.6z"/>
	<path class="st0" d="M728.1,163.7l23.7,66.6l25.6-69.5c2-5.6,4-9.5,5.9-11.9c1.9-2.3,4.9-3.5,8.8-3.5c3.7,0,6.9,1.3,9.5,3.8
		s3.9,5.4,3.9,8.7c0,1.3-0.2,2.8-0.7,4.5s-1,3.3-1.6,4.8s-1.3,3.2-2.1,5.2L773,242.2c-0.8,2-1.8,4.5-3.1,7.6s-2.7,5.7-4.2,7.9
		s-3.4,3.9-5.7,5.1s-5,1.8-8.2,1.8c-4.2,0-7.5-1-9.9-2.8s-4.3-4-5.5-6.2s-3.2-6.7-6-13.4l-27.9-69.1c-0.6-1.7-1.3-3.4-2-5.2
		c-0.7-1.7-1.3-3.5-1.7-5.3c-0.5-1.8-0.7-3.3-0.7-4.6c0-2,0.6-4,1.8-6s2.9-3.6,5-4.8c2.1-1.3,4.5-1.9,7-1.9c4.9,0,8.2,1.4,10,4.2
		S725.9,157.1,728.1,163.7z"/>
	<path class="st0" d="M905.6,212.3h-57.4c0.1,6.7,1.4,12.5,4,17.6s6.1,8.9,10.4,11.5c4.3,2.6,9.1,3.9,14.3,3.9
		c3.5,0,6.7-0.4,9.6-1.2c2.9-0.8,5.7-2.1,8.4-3.9c2.7-1.8,5.2-3.6,7.5-5.6s5.3-4.7,8.9-8.2c1.5-1.3,3.7-1.9,6.4-1.9
		c3,0,5.4,0.8,7.3,2.5c1.9,1.6,2.8,4,2.8,7c0,2.7-1,5.7-3.1,9.3c-2.1,3.5-5.2,6.9-9.4,10.2s-9.5,6-15.8,8.1s-13.6,3.2-21.9,3.2
		c-18.8,0-33.5-5.4-43.9-16.1C823.2,238,818,223.4,818,205c0-8.7,1.3-16.7,3.9-24.1s6.3-13.8,11.3-19.1c4.9-5.3,11-9.4,18.3-12.2
		c7.2-2.8,15.3-4.2,24.1-4.2c11.5,0,21.3,2.4,29.5,7.3c8.2,4.8,14.3,11.1,18.4,18.7c4.1,7.7,6.1,15.5,6.1,23.4
		c0,7.4-2.1,12.2-6.3,14.3C919.2,211.2,913.2,212.3,905.6,212.3z M848.2,195.6h53.2c-0.7-10-3.4-17.5-8.1-22.5
		c-4.7-5-10.9-7.5-18.5-7.5c-7.3,0-13.3,2.5-18,7.6C852.1,178.3,849.2,185.7,848.2,195.6z"/>
	<path class="st0" d="M981.1,161.7v3.5c5.2-6.8,10.8-11.8,16.9-15c6.1-3.2,13.2-4.8,21.1-4.8c7.7,0,14.6,1.7,20.7,5
		c6.1,3.4,10.6,8.1,13.6,14.3c1.9,3.6,3.2,7.4,3.8,11.6c0.6,4.2,0.9,9.5,0.9,15.9v54.6c0,5.9-1.3,10.3-4,13.3s-6.2,4.5-10.5,4.5
		c-4.4,0-7.9-1.5-10.6-4.6s-4.1-7.5-4.1-13.2V198c0-9.7-1.3-17.1-4-22.2c-2.7-5.1-8-7.7-16.1-7.7c-5.2,0-10,1.6-14.3,4.7
		s-7.4,7.4-9.5,12.8c-1.4,4.4-2.1,12.5-2.1,24.5v36.7c0,5.9-1.4,10.4-4.1,13.4c-2.8,3-6.3,4.5-10.7,4.5c-4.2,0-7.7-1.5-10.4-4.6
		s-4.1-7.5-4.1-13.2v-84.8c0-5.6,1.2-9.8,3.7-12.5c2.4-2.8,5.8-4.1,10-4.1c2.6,0,4.9,0.6,7,1.8s3.7,3,5,5.5
		C980.5,155.2,981.1,158.2,981.1,161.7z"/>
	<path class="st0" d="M1088.9,148h3.2v-17.6c0-4.7,0.1-8.4,0.4-11.1s0.9-5,2.1-6.9c1.1-2,2.8-3.6,4.9-4.9s4.5-1.9,7.2-1.9
		c3.7,0,7.1,1.4,10.1,4.2c2,1.9,3.3,4.1,3.8,6.8s0.8,6.5,0.8,11.4v20h10.7c4.2,0,7.3,1,9.5,3s3.3,4.5,3.3,7.6c0,3.9-1.6,6.7-4.7,8.3
		s-7.6,2.4-13.4,2.4h-5.5v53.9c0,4.6,0.2,8.1,0.5,10.6s1.2,4.5,2.6,6s3.7,2.3,6.8,2.3c1.7,0,4-0.3,7-0.9c2.9-0.6,5.2-0.9,6.9-0.9
		c2.4,0,4.5,1,6.4,2.8c1.9,1.9,2.8,4.2,2.8,7c0,4.7-2.6,8.3-7.7,10.8s-12.6,3.8-22.2,3.8c-9.2,0-16.1-1.5-20.8-4.6
		s-7.8-7.3-9.3-12.8c-1.5-5.4-2.2-12.7-2.2-21.8v-56.3h-3.9c-4.2,0-7.4-1-9.7-3c-2.2-2-3.3-4.5-3.3-7.6s1.2-5.6,3.5-7.6
		C1081.1,149,1084.5,148,1088.9,148z"/>
	<path class="st0" d="M1275,205.1c0,8.7-1.4,16.8-4.1,24.2s-6.7,13.7-11.8,19c-5.2,5.3-11.3,9.4-18.5,12.2s-15.2,4.2-24.2,4.2
		c-8.9,0-16.9-1.4-24-4.3s-13.2-7-18.4-12.3c-5.2-5.3-9.1-11.6-11.8-18.9c-2.7-7.3-4-15.3-4-24.1c0-8.9,1.4-17,4.1-24.4
		s6.6-13.7,11.7-18.9s11.2-9.3,18.5-12.1c7.2-2.8,15.2-4.2,24-4.2c8.9,0,16.9,1.4,24.2,4.3c7.2,2.9,13.4,6.9,18.6,12.2
		s9.1,11.6,11.8,18.9S1275,196.3,1275,205.1z M1245.6,205.1c0-12-2.6-21.3-7.9-27.9s-12.3-10-21.2-10c-5.7,0-10.8,1.5-15.1,4.5
		c-4.4,3-7.7,7.4-10.1,13.2s-3.5,12.6-3.5,20.3s1.2,14.4,3.5,20.1c2.3,5.7,5.7,10.1,10,13.2c4.3,3,9.4,4.6,15.3,4.6
		c8.9,0,16-3.3,21.2-10C1242.9,226.1,1245.6,216.9,1245.6,205.1z"/>
	<path class="st0" d="M1392.5,226.3c0,8.1-2,15-5.9,20.8s-9.8,10.1-17.5,13.1s-17.1,4.5-28.1,4.5c-10.5,0-19.6-1.6-27.1-4.8
		s-13.1-7.3-16.7-12.1s-5.4-9.7-5.4-14.6c0-3.2,1.1-6,3.4-8.3s5.2-3.4,8.7-3.4c3.1,0,5.4,0.8,7.1,2.3c1.6,1.5,3.2,3.6,4.7,6.3
		c3,5.2,6.6,9.1,10.8,11.7s9.9,3.9,17.1,3.9c5.9,0,10.7-1.3,14.4-3.9c3.8-2.6,5.6-5.6,5.6-9c0-5.2-2-8.9-5.9-11.3
		c-3.9-2.4-10.3-4.6-19.3-6.8c-10.1-2.5-18.3-5.1-24.7-7.9c-6.3-2.8-11.4-6.4-15.2-10.9c-3.8-4.5-5.7-10.1-5.7-16.7
		c0-5.9,1.8-11.4,5.3-16.7c3.5-5.2,8.7-9.4,15.5-12.5s15.1-4.7,24.8-4.7c7.6,0,14.4,0.8,20.5,2.4c6.1,1.6,11.1,3.7,15.1,6.3
		c4,2.7,7.1,5.6,9.2,8.8s3.2,6.4,3.2,9.5c0,3.4-1.1,6.1-3.4,8.3s-5.5,3.2-9.6,3.2c-3,0-5.6-0.9-7.7-2.6c-2.1-1.7-4.5-4.3-7.3-7.7
		c-2.2-2.9-4.8-5.2-7.8-6.9s-7.1-2.6-12.2-2.6c-5.3,0-9.7,1.1-13.2,3.4c-3.5,2.3-5.3,5.1-5.3,8.4c0,3.1,1.3,5.6,3.9,7.6
		s6.1,3.6,10.4,4.9c4.4,1.3,10.4,2.9,18,4.7c9.1,2.2,16.5,4.9,22.3,7.9c5.8,3.1,10.1,6.7,13.1,10.9
		C1391,216.2,1392.5,221,1392.5,226.3z"/>
</g>
<path class="st1" d="M237.3,158.9c-8.4,0-15.3,2.9-20.7,8.7s-8.7,14.4-9.8,25.7h61.1c-0.8-11.5-3.9-20.1-9.3-25.8
	C253.1,161.7,246,158.9,237.3,158.9z"/>
<path class="st1" d="M134,91.3c-3.4-2.8-7.2-4.2-11.6-4.2c-4.5,0-8.5,1.5-11.9,4.6s-5.1,7-5.1,11.8c0,5.3,1.7,9.3,5,12.2
	c3.3,2.9,7.3,4.3,12,4.3c4.5,0,8.4-1.5,11.7-4.4s4.9-7,4.9-12.2C139.1,98.2,137.4,94.1,134,91.3z"/>
<path class="st1" d="M122.1,135.7c-4.9,0-8.9,1.7-12,5.1c-3.1,3.4-4.6,8.4-4.6,15v96.3c0,6.6,1.5,11.6,4.6,15.2
	c3.1,3.5,7.1,5.3,12,5.3s9-1.7,12.2-5.2s4.8-8.6,4.8-15.3v-97.3c0-6-1.6-10.7-4.8-14.1C131.1,137.4,127,135.7,122.1,135.7z"/>
<path class="st1" d="M293.1,208.7c4.9-2.5,7.3-8,7.3-16.5c0-9.1-2.3-18.1-7-26.9c-4.7-8.8-11.7-16-21.2-21.5
	c-9.4-5.6-20.7-8.3-33.9-8.3c-10.1,0-19.3,1.6-27.6,4.9c-8.3,3.3-15.3,7.9-21,14s-10,13.4-13,21.9s-4.4,17.7-4.4,27.7
	c0,21.1,6,37.9,18,50.2s28.8,18.5,50.5,18.5c9.5,0,17.8-1.2,25.1-3.7c7.3-2.5,13.3-5.6,18.1-9.3c4.8-3.7,8.4-7.6,10.8-11.7
	c2.4-4.1,3.6-7.6,3.6-10.7c0-3.5-1.1-6.1-3.2-8s-4.9-2.8-8.4-2.8c-3.2,0-5.7,0.7-7.4,2.2c-4.2,3.9-7.6,7.1-10.2,9.4
	c-2.6,2.3-5.5,4.5-8.6,6.5s-6.4,3.5-9.7,4.4s-7,1.4-11,1.4c-6,0-11.5-1.5-16.5-4.4c-5-3-9-7.4-12-13.2s-4.5-12.6-4.6-20.2h65.9
	C281.5,212.4,288.3,211.2,293.1,208.7z"/>
<path class="st1" d="M134,91.3c-3.4-2.8-7.2-4.2-11.6-4.2c-4.5,0-8.5,1.5-11.9,4.6s-5.1,7-5.1,11.8c0,5.3,1.7,9.3,5,12.2
	c3.3,2.9,7.3,4.3,12,4.3c4.5,0,8.4-1.5,11.7-4.4s4.9-7,4.9-12.2C139.1,98.2,137.4,94.1,134,91.3z"/>
<path class="st1" d="M293.1,208.7c4.9-2.5,7.3-8,7.3-16.5c0-9.1-2.3-18.1-7-26.9c-4.7-8.8-11.7-16-21.2-21.5
	c-9.4-5.6-20.7-8.3-33.9-8.3c-10.1,0-19.3,1.6-27.6,4.9c-8.3,3.3-15.3,7.9-21,14s-10,13.4-13,21.9s-4.4,17.7-4.4,27.7
	c0,21.1,6,37.9,18,50.2s28.8,18.5,50.5,18.5c9.5,0,17.8-1.2,25.1-3.7c7.3-2.5,13.3-5.6,18.1-9.3c4.8-3.7,8.4-7.6,10.8-11.7
	c2.4-4.1,3.6-7.6,3.6-10.7c0-3.5-1.1-6.1-3.2-8s-4.9-2.8-8.4-2.8c-3.2,0-5.7,0.7-7.4,2.2c-4.2,3.9-7.6,7.1-10.2,9.4
	c-2.6,2.3-5.5,4.5-8.6,6.5s-6.4,3.5-9.7,4.4s-7,1.4-11,1.4c-6,0-11.5-1.5-16.5-4.4c-5-3-9-7.4-12-13.2s-4.5-12.6-4.6-20.2h65.9
	C281.5,212.4,288.3,211.2,293.1,208.7z"/>
<path class="st1" d="M122.1,135.7c-4.9,0-8.9,1.7-12,5.1c-3.1,3.4-4.6,8.4-4.6,15v96.3c0,6.6,1.5,11.6,4.6,15.2
	c3.1,3.5,7.1,5.3,12,5.3s9-1.7,12.2-5.2s4.8-8.6,4.8-15.3v-97.3c0-6-1.6-10.7-4.8-14.1C131.1,137.4,127,135.7,122.1,135.7z"/>
<g>
	<path class="st2" d="M237.3,158.9c-8.4,0-15.3,2.9-20.7,8.7s-8.7,14.4-9.8,25.7h61.1c-0.8-11.5-3.9-20.1-9.3-25.8
		C253.1,161.7,246,158.9,237.3,158.9z"/>
	<path class="st2" d="M354.9,93.9L216.8,3.7L60.2,55.4L3,210.1l85.3,141.2l163.5,21.4l118.7-114.6L354.9,93.9z M139.1,252.1
		c0,6.7-1.6,11.8-4.8,15.3s-7.3,5.2-12.2,5.2c-4.9,0-8.9-1.8-12-5.3s-4.6-8.6-4.6-15.2v-96.3c0-6.7,1.5-11.7,4.6-15
		c3.1-3.4,7.1-5.1,12-5.1s9,1.7,12.2,5.1c3.2,3.4,4.8,8.1,4.8,14.1V252.1z M134.1,115.7c-3.3,2.9-7.2,4.4-11.7,4.4
		c-4.7,0-8.7-1.4-12-4.3s-5-6.9-5-12.2c0-4.8,1.7-8.7,5.1-11.8c3.4-3.1,7.4-4.6,11.9-4.6c4.4,0,8.2,1.4,11.6,4.2
		c3.4,2.8,5.1,6.9,5.1,12.2C139.1,108.7,137.4,112.7,134.1,115.7z M211.4,232.7c3,5.8,7,10.2,12,13.2s10.5,4.4,16.5,4.4
		c4,0,7.7-0.5,11-1.4s6.6-2.4,9.7-4.4s6-4.2,8.6-6.5s6-5.4,10.2-9.4c1.7-1.5,4.2-2.2,7.4-2.2c3.5,0,6.2,0.9,8.4,2.8
		c2.1,1.9,3.2,4.6,3.2,8c0,3-1.2,6.6-3.6,10.7c-2.4,4.1-6,8-10.8,11.7c-4.8,3.7-10.9,6.8-18.1,9.3c-7.3,2.5-15.6,3.7-25.1,3.7
		c-21.6,0-38.4-6.2-50.5-18.5c-12-12.3-18-29.1-18-50.2c0-9.9,1.5-19.2,4.4-27.7c3-8.5,7.3-15.8,13-21.9c5.7-6.1,12.7-10.8,21-14
		s17.5-4.9,27.6-4.9c13.2,0,24.4,2.8,33.9,8.3c9.4,5.6,16.5,12.7,21.2,21.5s7,17.8,7,26.9c0,8.5-2.4,14-7.3,16.5s-11.7,3.8-20.5,3.8
		h-65.9C206.9,220.1,208.4,226.8,211.4,232.7z"/>
</g>
</svg>
