<?xml version="1.0" encoding="utf-8"?>
<!-- Generator: Adobe Illustrator 22.0.0, SVG Export Plug-In . SVG Version: 6.00 Build 0)  -->
<svg version="1.1" id="Layer_1" xmlns="http://www.w3.org/2000/svg" xmlns:xlink="http://www.w3.org/1999/xlink" x="0px" y="0px"
	 viewBox="0 0 379.6 376.4" style="enable-background:new 0 0 379.6 376.4;" xml:space="preserve">
<style type="text/css">
	.st0{fill:none;}
	.st1{fill:#00AEEF;}
</style>
<title>antares_logo_sign_2</title>
<path class="st0" d="M241.3,158.9c-8.4,0-15.3,2.9-20.7,8.7s-8.7,14.4-9.8,25.7h61.1c-0.8-11.5-3.9-20.1-9.3-25.8
	C257.1,161.7,250,158.9,241.3,158.9z"/>
<path class="st0" d="M138,91.3c-3.4-2.8-7.2-4.2-11.6-4.2c-4.5,0-8.5,1.5-11.9,4.6s-5.1,7-5.1,11.8c0,5.3,1.7,9.3,5,12.2
	c3.3,2.9,7.3,4.3,12,4.3c4.5,0,8.4-1.5,11.7-4.4s4.9-7,4.9-12.2C143.1,98.2,141.4,94.1,138,91.3z"/>
<path class="st0" d="M126.1,135.7c-4.9,0-8.9,1.7-12,5.1c-3.1,3.4-4.6,8.4-4.6,15v96.3c0,6.6,1.5,11.6,4.6,15.2
	c3.1,3.5,7.1,5.3,12,5.3s9-1.7,12.2-5.2s4.8-8.6,4.8-15.3v-97.3c0-6-1.6-10.7-4.8-14.1C135.1,137.4,131,135.7,126.1,135.7z"/>
<path class="st0" d="M297.1,208.7c4.9-2.5,7.3-8,7.3-16.5c0-9.1-2.3-18.1-7-26.9c-4.7-8.8-11.7-16-21.2-21.5
	c-9.4-5.6-20.7-8.3-33.9-8.3c-10.1,0-19.3,1.6-27.6,4.9c-8.3,3.3-15.3,7.9-21,14s-10,13.4-13,21.9s-4.4,17.7-4.4,27.7
	c0,21.1,6,37.9,18,50.2s28.8,18.5,50.5,18.5c9.5,0,17.8-1.2,25.1-3.7c7.3-2.5,13.3-5.6,18.1-9.3c4.8-3.7,8.4-7.6,10.8-11.7
	c2.4-4.1,3.6-7.6,3.6-10.7c0-3.5-1.1-6.1-3.2-8s-4.9-2.8-8.4-2.8c-3.2,0-5.7,0.7-7.4,2.2c-4.2,3.9-7.6,7.1-10.2,9.4
	c-2.6,2.3-5.5,4.5-8.6,6.5s-6.4,3.5-9.7,4.4s-7,1.4-11,1.4c-6,0-11.5-1.5-16.5-4.4c-5-3-9-7.4-12-13.2s-4.5-12.6-4.6-20.2h65.9
	C285.5,212.4,292.3,211.2,297.1,208.7z"/>
<path class="st0" d="M138,91.3c-3.4-2.8-7.2-4.2-11.6-4.2c-4.5,0-8.5,1.5-11.9,4.6s-5.1,7-5.1,11.8c0,5.3,1.7,9.3,5,12.2
	c3.3,2.9,7.3,4.3,12,4.3c4.5,0,8.4-1.5,11.7-4.4s4.9-7,4.9-12.2C143.1,98.2,141.4,94.1,138,91.3z"/>
<path class="st0" d="M297.1,208.7c4.9-2.5,7.3-8,7.3-16.5c0-9.1-2.3-18.1-7-26.9c-4.7-8.8-11.7-16-21.2-21.5
	c-9.4-5.6-20.7-8.3-33.9-8.3c-10.1,0-19.3,1.6-27.6,4.9c-8.3,3.3-15.3,7.9-21,14s-10,13.4-13,21.9s-4.4,17.7-4.4,27.7
	c0,21.1,6,37.9,18,50.2s28.8,18.5,50.5,18.5c9.5,0,17.8-1.2,25.1-3.7c7.3-2.5,13.3-5.6,18.1-9.3c4.8-3.7,8.4-7.6,10.8-11.7
	c2.4-4.1,3.6-7.6,3.6-10.7c0-3.5-1.1-6.1-3.2-8s-4.9-2.8-8.4-2.8c-3.2,0-5.7,0.7-7.4,2.2c-4.2,3.9-7.6,7.1-10.2,9.4
	c-2.6,2.3-5.5,4.5-8.6,6.5s-6.4,3.5-9.7,4.4s-7,1.4-11,1.4c-6,0-11.5-1.5-16.5-4.4c-5-3-9-7.4-12-13.2s-4.5-12.6-4.6-20.2h65.9
	C285.5,212.4,292.3,211.2,297.1,208.7z"/>
<path class="st0" d="M126.1,135.7c-4.9,0-8.9,1.7-12,5.1c-3.1,3.4-4.6,8.4-4.6,15v96.3c0,6.6,1.5,11.6,4.6,15.2
	c3.1,3.5,7.1,5.3,12,5.3s9-1.7,12.2-5.2s4.8-8.6,4.8-15.3v-97.3c0-6-1.6-10.7-4.8-14.1C135.1,137.4,131,135.7,126.1,135.7z"/>
<g>
	<path class="st1" d="M241.3,158.9c-8.4,0-15.3,2.9-20.7,8.7s-8.7,14.4-9.8,25.7h61.1c-0.8-11.5-3.9-20.1-9.3-25.8
		C257.1,161.7,250,158.9,241.3,158.9z"/>
	<path class="st1" d="M358.9,93.9L220.8,3.7L64.2,55.4L7,210.1l85.3,141.2l163.5,21.4l118.7-114.6L358.9,93.9z M143.1,252.1
		c0,6.7-1.6,11.8-4.8,15.3s-7.3,5.2-12.2,5.2c-4.9,0-8.9-1.8-12-5.3s-4.6-8.6-4.6-15.2v-96.3c0-6.7,1.5-11.7,4.6-15
		c3.1-3.4,7.1-5.1,12-5.1c4.9,0,9,1.7,12.2,5.1c3.2,3.4,4.8,8.1,4.8,14.1V252.1z M138.1,115.7c-3.3,2.9-7.2,4.4-11.7,4.4
		c-4.7,0-8.7-1.4-12-4.3s-5-6.9-5-12.2c0-4.8,1.7-8.7,5.1-11.8c3.4-3.1,7.4-4.6,11.9-4.6c4.4,0,8.2,1.4,11.6,4.2
		c3.4,2.8,5.1,6.9,5.1,12.2C143.1,108.7,141.4,112.7,138.1,115.7z M215.4,232.7c3,5.8,7,10.2,12,13.2s10.5,4.4,16.5,4.4
		c4,0,7.7-0.5,11-1.4c3.3-0.9,6.6-2.4,9.7-4.4s6-4.2,8.6-6.5s6-5.4,10.2-9.4c1.7-1.5,4.2-2.2,7.4-2.2c3.5,0,6.2,0.9,8.4,2.8
		c2.1,1.9,3.2,4.6,3.2,8c0,3-1.2,6.6-3.6,10.7c-2.4,4.1-6,8-10.8,11.7c-4.8,3.7-10.9,6.8-18.1,9.3c-7.3,2.5-15.6,3.7-25.1,3.7
		c-21.6,0-38.4-6.2-50.5-18.5c-12-12.3-18-29.1-18-50.2c0-9.9,1.5-19.2,4.4-27.7c3-8.5,7.3-15.8,13-21.9c5.7-6.1,12.7-10.8,21-14
		s17.5-4.9,27.6-4.9c13.2,0,24.4,2.8,33.9,8.3c9.4,5.6,16.5,12.7,21.2,21.5s7,17.8,7,26.9c0,8.5-2.4,14-7.3,16.5s-11.7,3.8-20.5,3.8
		h-65.9C210.9,220.1,212.4,226.8,215.4,232.7z"/>
</g>
</svg>
